<svg xmlns="http://www.w3.org/2000/svg" viewBox="0 0 24 24">
  <path d="M10.078125 2C9.838125 2 9.6338906 2.1692969 9.5878906 2.4042969L9.1757812 4.5234375C8.3550224 4.8338012 7.5961042 5.2674041 6.9296875 5.8144531L4.8964844 5.1132812C4.6704844 5.0362812 4.4207813 5.1289375 4.3007812 5.3359375L2.3789062 8.6640625C2.2589062 8.8710625 2.303375 9.1340156 2.484375 9.2910156L4.1132812 10.707031C4.0445153 11.128986 4 11.558619 4 12C4 12.441573 4.0402933 12.873401 4.109375 13.294922L2.484375 14.708984C2.303375 14.865984 2.2589062 15.128937 2.3789062 15.335938L4.3007812 18.664062C4.4207813 18.871063 4.6694844 18.964719 4.8964844 18.886719L6.9511719 18.177734C7.5660953 18.677679 8.2539147 19.091458 9 19.394531L9 16C9 15.595 9.0774531 15.21175 9.1894531 14.84375C8.4554531 14.11775 8 13.113 8 12C8 9.791 9.791 8 12 8C14.209 8 16 9.791 16 12L20 12C20 11.558619 19.955485 11.128986 19.886719 10.707031L21.515625 9.2910156C21.696625 9.1340156 21.741094 8.8710625 21.621094 8.6640625L19.699219 5.3359375C19.579219 5.1289375 19.330516 5.0352813 19.103516 5.1132812L17.070312 5.8144531C16.403896 5.2674041 15.644978 4.8338012 14.824219 4.5234375L14.412109 2.4042969C14.366109 2.1692969 14.161875 2 13.921875 2L10.078125 2 z M 13 14C11.895 14 11 14.895 11 16L11 24L24 24L24 16C24 14.895 23.105 14 22 14L13 14 z M 19.585938 16L21 17.414062L17.414062 21L14 21L14 19L16.585938 19L19.585938 16 z" fill="#5B5B5B" />
</svg>