<svg width="1920" height="1080" viewBox="0 0 1920 1080" fill="none" xmlns="http://www.w3.org/2000/svg">
<rect x="1" width="92" height="1080" fill="white"/>
<path style="mix-blend-mode:screen" opacity="0.5" d="M1624.12 577.018C1624.12 732.842 1488.19 859.149 1320.49 859.149C1152.8 859.149 1016.87 732.842 1016.87 577.018C1016.87 421.344 1152.8 295.037 1320.49 295.037C1488.19 295.037 1624.12 421.344 1624.12 577.018Z" fill="url(#paint0_radial_1_110)"/>
<path fill-rule="evenodd" clip-rule="evenodd" d="M1731.51 977.216C1761.66 1005.08 1772.95 1043.89 1765.85 1080H1521.73C1518.82 1065.62 1518.82 1050.78 1521.89 1036.55C1487.7 1034.3 1454.17 1021.12 1427.88 996.844C1397.41 968.376 1383.06 930.619 1384.99 893.461C1358.06 893.311 1331.14 883.722 1310.66 864.693C1297.44 852.257 1288.41 837.574 1283.57 821.842C1254.22 829.333 1221.33 822.291 1198.27 800.715C1163.77 768.802 1163.77 716.81 1198.27 684.896C1232.78 652.833 1288.57 652.833 1323.07 684.896C1330.01 691.339 1335.49 698.531 1339.52 706.172C1379.03 688.642 1427.88 694.935 1460.45 725.351C1474.16 737.936 1483.35 753.219 1487.87 769.401C1538.66 754.717 1596.06 765.955 1636.21 803.263C1677.81 841.919 1689.26 897.806 1670.72 946.201C1692.97 950.696 1714.25 961.034 1731.51 977.216ZM1055.57 263.572C1013.97 224.916 953.664 214.278 901.744 231.509C896.745 210.832 885.619 191.204 868.366 175.023C819.832 129.923 741.145 129.923 692.772 175.023C644.237 220.122 644.237 293.239 692.772 338.188C723.085 366.506 765.331 376.994 804.514 369.952C806.771 401.716 821.122 432.881 847.243 457.154C877.718 485.622 918.352 498.807 958.341 497.158C958.502 522.18 968.821 547.052 989.461 566.23C1002.68 578.517 1018.65 586.907 1035.42 591.252C1027.51 618.671 1035.09 649.087 1058.15 670.513C1092.66 702.576 1148.45 702.576 1182.95 670.513C1217.3 638.599 1217.3 586.607 1182.95 554.693C1176.02 548.251 1168.28 543.157 1159.9 539.261C1178.92 502.552 1171.99 457.304 1139.42 426.888C1125.71 414.152 1109.26 405.762 1091.85 401.417C1107.81 354.37 1095.72 300.88 1055.57 263.572V263.572Z" fill="url(#paint1_linear_1_110)"/>
<path style="mix-blend-mode:screen" fill-rule="evenodd" clip-rule="evenodd" d="M712.121 51.8617C707.445 49.4644 705.832 43.9206 708.412 39.5756C711.153 35.0806 717.119 33.5823 721.796 36.1294C726.472 38.5267 728.084 44.0705 725.504 48.4156C722.763 52.7606 716.797 54.4088 712.121 51.8617ZM710.186 121.683C708.735 124.23 705.187 125.129 702.446 123.631C699.705 122.132 698.738 118.986 700.35 116.439C701.801 113.892 705.349 112.843 708.09 114.341C710.831 115.839 711.798 118.986 710.186 121.683ZM774.522 4.81484C777.264 6.31315 778.231 9.4596 776.78 12.0067C775.167 14.7037 771.62 15.6026 768.879 14.1043C766.138 12.606 765.17 9.45958 766.783 6.91246C768.395 4.21551 771.781 3.31653 774.522 4.81484ZM807.739 84.5248C804.03 82.7268 802.74 78.3817 804.836 74.9356C806.932 71.6393 811.447 70.4407 815.156 72.3885C818.864 74.1864 820.154 78.5315 818.058 81.9776C815.962 85.2739 811.447 86.4726 807.739 84.5248ZM1281.31 413.553C1278.57 412.204 1277.6 408.908 1279.05 406.361C1280.67 403.814 1284.21 402.915 1286.96 404.263C1289.7 405.762 1290.66 409.058 1289.05 411.605C1287.6 414.152 1284.05 415.051 1281.31 413.553ZM1285.18 555.143C1283.57 558.739 1279.05 560.387 1275.19 558.889C1271.32 557.39 1269.54 553.345 1271.15 549.749C1272.77 546.153 1277.12 544.355 1280.99 545.853C1284.86 547.352 1286.79 551.547 1285.18 555.143V555.143ZM804.675 139.063C801.934 137.565 800.966 134.269 802.579 131.721C804.03 129.174 807.577 128.275 810.318 129.774C813.06 131.122 814.027 134.418 812.576 136.965C810.964 139.513 807.416 140.412 804.675 139.063ZM629.241 40.924C631.176 37.4779 635.852 36.2793 639.4 38.2271C643.108 40.1749 644.398 44.3701 642.302 47.8162C640.206 51.1125 635.691 52.3112 631.983 50.5132C628.435 48.5654 627.145 44.2203 629.241 40.924V40.924ZM1285.99 474.834C1284.7 477.531 1281.31 478.729 1278.41 477.68C1275.51 476.482 1274.06 473.335 1275.35 470.638C1276.48 467.941 1279.86 466.743 1282.76 467.792C1285.67 468.99 1287.12 472.137 1285.99 474.834ZM797.58 183.862C795.484 185.96 791.775 185.96 789.518 183.862C787.261 181.765 787.261 178.469 789.518 176.371C791.775 174.273 795.484 174.273 797.58 176.371C799.838 178.469 799.838 181.765 797.58 183.862ZM895.939 163.486C893.682 165.583 889.973 165.583 887.716 163.486C885.619 161.388 885.619 158.092 887.716 155.994C889.973 153.896 893.682 153.896 895.939 155.994C898.197 158.092 898.197 161.388 895.939 163.486ZM894.327 285.298C896.423 287.246 896.423 290.692 894.327 292.789C892.069 294.887 888.361 294.887 886.103 292.789C883.846 290.692 883.846 287.246 886.103 285.298C888.361 283.2 892.069 283.2 894.327 285.298ZM893.52 94.8631C890.618 93.3648 889.651 90.2183 891.263 87.6712C892.875 85.1241 896.262 84.2251 899.164 85.5736C901.905 87.0719 902.873 90.2183 901.26 92.9153C899.648 95.4624 896.262 96.3614 893.52 94.8631ZM1276.15 230.76C1279.38 233.756 1279.38 238.701 1276.15 241.697C1272.93 244.694 1267.61 244.694 1264.38 241.697C1261.16 238.701 1261.16 233.756 1264.38 230.76C1267.61 227.613 1272.93 227.613 1276.15 230.76ZM924.802 351.223C927.059 353.321 927.059 356.617 924.802 358.715C922.544 360.813 918.836 360.813 916.578 358.715C914.482 356.617 914.482 353.321 916.578 351.223C918.836 349.126 922.544 349.126 924.802 351.223ZM797.58 260.875C794.194 257.879 794.194 252.934 797.58 249.938C800.805 246.791 806.126 246.791 809.351 249.938C812.576 252.934 812.576 257.879 809.351 260.875C806.126 263.872 800.805 263.872 797.58 260.875ZM982.043 335.042C979.786 332.944 979.786 329.648 982.043 327.55C984.301 325.452 988.009 325.452 990.267 327.55C992.363 329.648 992.363 332.944 990.267 335.042C988.009 337.139 984.301 337.139 982.043 335.042ZM846.76 344.481C848.856 346.579 848.856 349.875 846.76 351.973C844.502 354.07 840.794 354.07 838.536 351.973C836.279 349.875 836.279 346.579 838.536 344.481C840.794 342.383 844.502 342.383 846.76 344.481ZM860.949 26.9898C856.918 24.8922 855.467 20.0976 857.724 16.3518C859.982 12.606 865.141 11.4074 869.173 13.505C873.204 15.6027 874.655 20.2474 872.397 23.9932C870.14 27.7389 864.98 29.0874 860.949 26.9898ZM866.593 217.574C863.529 214.877 863.529 210.383 866.593 207.686C869.495 204.989 874.332 204.989 877.235 207.686C880.137 210.383 880.137 214.877 877.235 217.574C874.332 220.421 869.495 220.421 866.593 217.574ZM1340.49 544.505C1343.55 545.554 1344.84 548.7 1343.71 551.397C1342.42 554.094 1339.04 555.443 1336.14 554.244C1333.23 553.195 1331.78 550.049 1333.07 547.352C1334.2 544.655 1337.59 543.306 1340.49 544.505ZM1336.3 640.546C1339.2 641.745 1340.65 644.891 1339.36 647.588C1338.23 650.285 1334.85 651.634 1331.94 650.435C1329.04 649.386 1327.59 646.24 1328.88 643.543C1330.01 640.846 1333.39 639.498 1336.3 640.546ZM1344.04 188.507C1347.1 191.204 1347.1 195.699 1344.04 198.396C1341.13 201.093 1336.3 201.093 1333.39 198.396C1330.49 195.699 1330.49 191.204 1333.39 188.507C1336.3 185.81 1341.13 185.81 1344.04 188.507ZM1349.36 393.775C1351.61 395.873 1351.61 399.319 1349.36 401.417C1347.1 403.514 1343.39 403.514 1341.3 401.417C1339.04 399.319 1339.04 395.873 1341.3 393.775C1343.39 391.827 1347.1 391.827 1349.36 393.775ZM1426.75 243.795C1430.46 247.391 1430.46 253.084 1426.75 256.68C1422.88 260.276 1416.6 260.276 1412.89 256.68C1409.02 253.084 1409.02 247.391 1412.89 243.795C1416.6 240.199 1422.88 240.199 1426.75 243.795ZM1391.6 332.045C1393.86 333.993 1393.86 337.439 1391.6 339.537C1389.35 341.634 1385.8 341.634 1383.54 339.537C1381.28 337.439 1381.28 333.993 1383.54 332.045C1385.8 329.947 1389.35 329.947 1391.6 332.045ZM1398.38 562.035C1400.63 563.983 1400.63 567.429 1398.38 569.527C1396.12 571.624 1392.57 571.624 1390.31 569.527C1388.06 567.429 1388.06 563.983 1390.31 562.035C1392.57 559.938 1396.12 559.938 1398.38 562.035ZM1349.2 467.342C1352.42 464.346 1357.74 464.346 1360.97 467.342C1364.19 470.339 1364.19 475.283 1360.97 478.28C1357.74 481.426 1352.42 481.426 1349.2 478.28C1345.97 475.283 1345.97 470.339 1349.2 467.342ZM1265.51 712.016C1269.38 713.514 1271.15 717.709 1269.54 721.305C1267.93 724.901 1263.58 726.549 1259.71 725.051C1255.84 723.553 1254.06 719.507 1255.67 715.911C1257.29 712.315 1261.64 710.667 1265.51 712.016ZM1397.41 58.9037C1394.67 57.5552 1393.7 54.259 1395.15 51.7118C1396.76 49.1647 1400.31 48.2657 1403.05 49.764C1405.79 51.1125 1406.76 54.4088 1405.15 56.9559C1403.7 59.503 1400.15 60.402 1397.41 58.9037V58.9037ZM1354.68 144.307C1352.42 142.21 1352.42 138.913 1354.68 136.816C1356.94 134.718 1360.48 134.718 1362.74 136.816C1365 138.913 1365 142.21 1362.74 144.307C1360.48 146.405 1356.94 146.405 1354.68 144.307ZM1314.21 93.8143C1316.95 95.3126 1318.08 98.459 1316.46 101.156C1314.85 103.703 1311.46 104.602 1308.56 103.104C1305.82 101.605 1304.85 98.459 1306.47 95.9119C1308.08 93.3648 1311.46 92.3159 1314.21 93.8143ZM1256.96 332.195C1261 334.292 1262.45 339.087 1260.19 342.683C1257.93 346.429 1252.77 347.777 1248.74 345.68C1244.71 343.582 1243.42 338.937 1245.68 335.191C1247.93 331.446 1252.93 330.097 1256.96 332.195ZM1264.54 157.193C1266.64 159.29 1266.64 162.587 1264.54 164.684C1262.29 166.782 1258.58 166.782 1256.32 164.684C1254.06 162.587 1254.06 159.29 1256.32 157.193C1258.58 155.095 1262.29 155.095 1264.54 157.193ZM1243.58 640.247C1245.68 635.602 1251.32 633.354 1256.32 635.302C1261.32 637.25 1263.74 642.494 1261.64 647.139C1259.54 651.784 1253.74 654.031 1248.74 652.083C1243.74 650.136 1241.49 644.742 1243.58 640.247V640.247ZM1352.9 266.12C1355.16 264.022 1358.87 264.022 1361.13 266.12C1363.39 268.067 1363.39 271.513 1361.13 273.611C1358.87 275.709 1355.16 275.709 1352.9 273.611C1350.81 271.513 1350.81 268.067 1352.9 266.12ZM1311.63 48.7152C1308.08 46.7674 1306.79 42.4223 1308.89 39.1261C1310.82 35.68 1315.5 34.4813 1319.04 36.4291C1322.75 38.3769 1324.04 42.5722 1321.95 46.0183C1319.85 49.3146 1315.33 50.5132 1311.63 48.7152V48.7152ZM1305.5 325.303C1307.6 323.205 1311.3 323.205 1313.56 325.303C1315.82 327.4 1315.82 330.697 1313.56 332.794C1311.3 334.892 1307.6 334.892 1305.5 332.794C1303.24 330.697 1303.24 327.4 1305.5 325.303ZM1157.48 643.693C1160.38 644.742 1161.67 647.888 1160.54 650.585C1159.25 653.282 1155.86 654.63 1152.96 653.582C1150.06 652.383 1148.77 649.237 1149.9 646.54C1151.19 643.843 1154.41 642.494 1157.48 643.693ZM1206.98 602.19C1204.08 600.991 1202.63 597.845 1203.92 595.148C1205.04 592.451 1208.43 591.252 1211.33 592.301C1214.23 593.5 1215.69 596.646 1214.4 599.343C1213.27 602.04 1209.88 603.239 1206.98 602.19ZM1198.43 693.736C1199.56 691.039 1202.95 689.691 1205.85 690.89C1208.75 691.938 1210.2 695.085 1208.91 697.782C1207.79 700.479 1204.4 701.827 1201.5 700.629C1198.59 699.58 1197.14 696.433 1198.43 693.736ZM1190.37 450.411C1191.98 447.864 1195.37 446.965 1198.11 448.463C1200.85 449.962 1201.82 453.108 1200.37 455.655C1198.76 458.202 1195.21 459.251 1192.47 457.753C1189.73 456.255 1188.76 453.108 1190.37 450.411ZM1193.27 261.924C1191.66 264.471 1188.27 265.37 1185.53 263.872C1182.63 262.374 1181.66 259.227 1183.28 256.68C1184.89 254.133 1188.27 253.234 1191.02 254.583C1193.92 256.081 1194.89 259.377 1193.27 261.924ZM1214.23 85.7234C1212.62 88.2705 1209.08 89.1695 1206.33 87.6712C1203.59 86.3227 1202.63 83.0265 1204.24 80.4793C1205.85 77.9322 1209.24 77.0332 1211.98 78.5315C1214.72 79.88 1215.69 83.1763 1214.23 85.7234ZM981.882 203.79C979.625 201.692 979.625 198.396 981.882 196.298C984.14 194.201 987.687 194.201 989.944 196.298C992.202 198.396 992.202 201.692 989.944 203.79C987.687 205.888 984.14 205.888 981.882 203.79ZM1206.33 517.086C1202.14 515.438 1200.05 510.793 1201.82 506.897C1203.59 503.002 1208.43 501.054 1212.78 502.702C1216.98 504.35 1219.07 508.845 1217.3 512.891C1215.52 516.786 1210.53 518.734 1206.33 517.086ZM1161.99 61.0013C1164.25 63.099 1164.25 66.5451 1161.99 68.6427C1159.73 70.7403 1156.19 70.7403 1153.93 68.6427C1151.67 66.5451 1151.67 63.099 1153.93 61.0013C1156.19 59.0535 1159.73 59.0535 1161.99 61.0013ZM1198.11 158.991C1195.05 156.294 1195.05 151.799 1198.11 149.102C1201.01 146.405 1205.85 146.405 1208.75 149.102C1211.65 151.799 1211.65 156.294 1208.75 158.991C1205.85 161.837 1201.01 161.837 1198.11 158.991ZM1920 337.888C1917.9 336.24 1917.1 333.394 1918.55 330.996C1918.98 330.397 1919.46 329.897 1920 329.498V337.888ZM1882.75 206.187C1884.36 203.64 1887.91 202.741 1890.65 204.09C1893.39 205.588 1894.36 208.884 1892.75 211.431C1891.3 213.978 1887.75 214.877 1885.01 213.379C1882.27 212.031 1881.3 208.734 1882.75 206.187ZM1897.1 60.5518C1895.97 63.2488 1892.59 64.5973 1889.69 63.3986C1886.78 62.3498 1885.33 59.2034 1886.62 56.5064C1887.75 53.8095 1891.14 52.461 1894.04 53.5098C1896.94 54.7085 1898.39 57.8549 1897.1 60.5518ZM1894.85 811.653C1897.75 812.702 1899.2 815.848 1897.91 818.545C1896.78 821.242 1893.39 822.591 1890.49 821.542C1887.59 820.343 1886.14 817.197 1887.43 814.5C1888.56 811.803 1891.94 810.454 1894.85 811.653ZM1896.3 575.07C1894.04 572.973 1894.04 569.527 1896.3 567.579C1898.55 565.481 1902.1 565.481 1904.36 567.579C1906.62 569.527 1906.62 572.973 1904.36 575.07C1902.1 577.168 1898.55 577.168 1896.3 575.07ZM1908.87 642.195C1905.97 644.891 1901.13 644.891 1898.23 642.195C1895.17 639.498 1895.17 635.003 1898.23 632.306C1901.13 629.459 1905.97 629.459 1908.87 632.306C1911.78 635.003 1911.78 639.498 1908.87 642.195ZM1920 135.617V144.008C1918.23 145.356 1915.81 145.506 1913.71 144.457C1910.97 142.959 1910 139.812 1911.45 137.265C1913.07 134.718 1916.61 133.819 1919.36 135.168C1919.57 135.367 1919.79 135.517 1920 135.617ZM1202.95 391.078C1206.66 393.026 1207.95 397.221 1205.85 400.667C1203.75 403.964 1199.24 405.162 1195.53 403.364C1191.98 401.417 1190.69 397.072 1192.63 393.775C1194.72 390.329 1199.4 389.131 1202.95 391.078ZM1428.85 425.09C1431.91 427.937 1431.91 432.282 1428.85 435.129C1425.95 437.825 1421.11 437.825 1418.21 435.129C1415.31 432.282 1415.31 427.937 1418.21 425.09C1421.11 422.393 1425.95 422.393 1428.85 425.09ZM1920 276.757V278.705C1919.89 278.106 1919.89 277.457 1920 276.757ZM1162.31 192.253C1164.57 194.351 1164.57 197.797 1162.31 199.894C1160.06 201.842 1156.35 201.842 1154.25 199.894C1151.99 197.797 1151.99 194.351 1154.25 192.253C1156.35 190.155 1160.06 190.155 1162.31 192.253ZM1038.64 82.4271C1035.74 79.5804 1035.74 75.2352 1038.64 72.3885C1041.54 69.6915 1046.38 69.6915 1049.28 72.3885C1052.35 75.2352 1052.35 79.5804 1049.28 82.4271C1046.38 85.1241 1041.54 85.1241 1038.64 82.4271ZM1058.31 157.492C1056.05 155.395 1056.05 152.098 1058.31 150.001C1060.41 147.903 1064.12 147.903 1066.37 150.001C1068.63 152.098 1068.63 155.395 1066.37 157.492C1064.12 159.59 1060.41 159.59 1058.31 157.492ZM1049.93 308.821C1051.54 306.274 1055.09 305.375 1057.83 306.724C1060.57 308.222 1061.54 311.368 1059.92 314.065C1058.31 316.612 1054.93 317.511 1052.18 316.013C1049.44 314.515 1048.48 311.368 1049.93 308.821ZM1025.9 294.288C1023 291.591 1023 287.096 1025.9 284.399C1028.97 281.702 1033.64 281.702 1036.71 284.399C1039.61 287.096 1039.61 291.591 1036.71 294.288C1033.64 296.985 1028.97 296.985 1025.9 294.288ZM959.792 262.973C963.662 266.569 963.662 272.263 959.792 275.859C956.083 279.454 949.795 279.454 946.086 275.859C942.216 272.263 942.216 266.569 946.086 262.973C949.795 259.527 956.083 259.527 959.792 262.973ZM1018.81 216.825C1016.55 218.923 1012.84 218.923 1010.74 216.825C1008.49 214.728 1008.49 211.282 1010.74 209.184C1012.84 207.236 1016.55 207.236 1018.81 209.184C1021.06 211.282 1021.06 214.728 1018.81 216.825ZM969.628 125.578C966.403 122.582 966.403 117.637 969.628 114.641C972.853 111.644 978.174 111.644 981.398 114.641C984.623 117.637 984.623 122.582 981.398 125.578C978.174 128.575 972.853 128.575 969.628 125.578ZM961.565 48.7152C959.469 46.6176 959.469 43.1715 961.565 41.0739C963.823 38.9762 967.531 38.9762 969.789 41.0739C972.046 43.1715 972.046 46.6176 969.789 48.7152C967.531 50.663 963.823 50.663 961.565 48.7152ZM1067.99 28.3383C1065.73 30.4359 1062.18 30.4359 1059.92 28.3383C1057.67 26.2406 1057.67 22.7945 1059.92 20.6969C1062.18 18.7491 1065.73 18.7491 1067.99 20.6969C1070.24 22.7945 1070.24 26.2406 1067.99 28.3383ZM1017.03 359.614C1018.97 356.318 1023.64 355.119 1027.35 356.917C1030.9 358.865 1032.19 363.21 1030.09 366.506C1028.16 369.952 1023.48 371.151 1019.94 369.203C1016.23 367.255 1014.94 363.06 1017.03 359.614V359.614ZM1108.3 276.907C1105.56 275.559 1104.59 272.263 1106.2 269.715C1107.65 267.168 1111.2 266.269 1113.94 267.618C1116.68 269.116 1117.65 272.412 1116.2 274.96C1114.59 277.507 1111.04 278.406 1108.3 276.907ZM1100.07 370.552C1095.24 368.154 1093.62 362.611 1096.37 358.265C1098.95 353.92 1104.91 352.272 1109.59 354.819C1114.26 357.217 1116.04 362.76 1113.3 367.105C1110.72 371.6 1104.75 373.099 1100.07 370.552ZM1088.79 223.418C1086.53 221.32 1086.53 218.024 1088.79 215.926C1091.04 213.829 1094.59 213.829 1096.85 215.926C1099.11 218.024 1099.11 221.32 1096.85 223.418C1094.59 225.515 1091.04 225.515 1088.79 223.418ZM1088.14 435.129C1089.59 432.581 1093.14 431.682 1095.88 433.031C1098.62 434.529 1099.59 437.825 1098.14 440.373C1096.53 442.92 1092.98 443.819 1090.24 442.32C1087.5 440.972 1086.53 437.676 1088.14 435.129ZM1126.84 577.018C1127.97 574.171 1131.36 572.973 1134.26 574.022C1137.16 575.22 1138.61 578.367 1137.32 581.064C1136.19 583.761 1132.81 585.109 1129.9 583.91C1127 582.712 1125.55 579.715 1126.84 577.018ZM1136.03 14.5538C1132.32 12.606 1131.03 8.41076 1133.13 4.96466C1135.23 1.66838 1139.74 0.469756 1143.45 2.26772C1147 4.21552 1148.29 8.5606 1146.35 11.8569C1144.25 15.303 1139.58 16.5016 1136.03 14.5538ZM1156.83 332.794C1154.09 331.446 1152.96 328.149 1154.57 325.602C1156.19 323.055 1159.57 322.156 1162.48 323.505C1165.22 325.003 1166.18 328.299 1164.57 330.846C1162.96 333.393 1159.57 334.293 1156.83 332.794ZM1118.13 140.561C1114.26 137.115 1114.26 131.272 1118.13 127.826C1122 124.23 1128.13 124.23 1132 127.826C1135.71 131.272 1135.71 137.115 1132 140.561C1128.13 144.157 1122 144.157 1118.13 140.561ZM1449.97 131.721C1447.88 135.018 1443.36 136.216 1439.65 134.269C1436.11 132.471 1434.82 128.125 1436.75 124.829C1438.85 121.383 1443.52 120.184 1447.07 122.132C1450.78 124.08 1452.07 128.275 1449.97 131.721V131.721ZM1788.1 194.65C1786.65 197.197 1783.1 198.096 1780.36 196.598C1777.62 195.1 1776.65 191.953 1778.11 189.406C1779.72 186.859 1783.26 185.96 1786.01 187.309C1788.75 188.807 1789.71 191.953 1788.1 194.65ZM1775.2 742.881C1774.07 745.578 1770.69 746.926 1767.79 745.728C1764.88 744.679 1763.43 741.532 1764.72 738.835C1765.85 736.138 1769.24 734.79 1772.14 735.989C1775.04 737.037 1776.49 740.184 1775.2 742.881ZM1782.62 402.465C1785.36 403.814 1786.33 407.11 1784.88 409.657C1783.26 412.204 1779.72 413.103 1776.98 411.755C1774.24 410.257 1773.27 406.96 1774.88 404.413C1776.33 401.866 1779.88 400.967 1782.62 402.465ZM1788.91 699.13C1791.17 697.033 1794.71 697.033 1796.97 699.13C1799.23 701.078 1799.23 704.524 1796.97 706.622C1794.71 708.719 1791.17 708.719 1788.91 706.622C1786.65 704.524 1786.65 701.078 1788.91 699.13ZM1758.43 640.696C1756.18 638.599 1756.18 635.153 1758.43 633.205C1760.69 631.107 1764.24 631.107 1766.5 633.205C1768.75 635.153 1768.75 638.599 1766.5 640.696C1764.24 642.794 1760.69 642.794 1758.43 640.696ZM1772.14 12.3064C1771.01 15.0033 1767.62 16.202 1764.72 15.1531C1761.82 13.9545 1760.37 10.8081 1761.66 8.11111C1762.79 5.41416 1766.17 4.21552 1769.08 5.26434C1771.98 6.46298 1773.43 9.60942 1772.14 12.3064ZM1760.53 817.796C1762.14 814.2 1766.5 812.552 1770.37 814.05C1774.24 815.549 1776.01 819.594 1774.4 823.19C1772.78 826.786 1768.43 828.434 1764.56 826.936C1760.69 825.437 1758.92 821.392 1760.53 817.796ZM1760.05 511.392C1757.79 509.295 1757.79 505.998 1760.05 503.901C1762.3 501.803 1765.85 501.803 1768.11 503.901C1770.37 505.998 1770.37 509.295 1768.11 511.392C1765.85 513.49 1762.3 513.49 1760.05 511.392ZM1758.92 989.352C1757.3 992.948 1752.95 994.596 1749.08 993.098C1745.21 991.6 1743.44 987.554 1744.89 983.958C1746.5 980.362 1751.02 978.714 1754.89 980.212C1758.76 981.711 1760.53 985.756 1758.92 989.352V989.352ZM1698.77 389.13C1702.32 391.078 1703.61 395.423 1701.51 398.72C1699.58 402.166 1694.9 403.364 1691.36 401.417C1687.65 399.469 1686.36 395.274 1688.45 391.827C1690.39 388.531 1695.06 387.333 1698.77 389.13V389.13ZM1688.94 259.976C1687.49 262.524 1683.94 263.423 1681.2 261.924C1678.46 260.576 1677.49 257.28 1678.94 254.732C1680.55 252.185 1684.1 251.286 1686.84 252.785C1689.58 254.133 1690.55 257.429 1688.94 259.976ZM1679.91 107.898C1677.65 111.644 1672.65 112.993 1668.62 110.895C1664.59 108.797 1663.14 104.003 1665.4 100.257C1667.65 96.5112 1672.81 95.3126 1676.84 97.4102C1680.88 99.5078 1682.33 104.153 1679.91 107.898ZM1681.52 597.845C1684.91 600.841 1684.91 605.786 1681.52 608.782C1678.3 611.779 1672.97 611.779 1669.75 608.782C1666.52 605.786 1666.52 600.841 1669.75 597.845C1672.97 594.698 1678.3 594.698 1681.52 597.845ZM1763.59 103.853C1766.5 104.902 1767.95 108.048 1766.66 110.745C1765.53 113.442 1762.14 114.791 1759.24 113.592C1756.34 112.543 1754.89 109.397 1756.18 106.7C1757.3 104.003 1760.69 102.654 1763.59 103.853ZM1653.62 743.78C1656.53 744.978 1657.98 747.975 1656.69 750.822C1655.56 753.519 1652.17 754.717 1649.27 753.669C1646.37 752.47 1644.92 749.323 1646.21 746.627C1647.34 743.93 1650.72 742.731 1653.62 743.78ZM1661.85 524.278C1664.11 522.18 1667.65 522.18 1669.91 524.278C1672.17 526.375 1672.17 529.672 1669.91 531.769C1667.65 533.867 1664.11 533.867 1661.85 531.769C1659.59 529.672 1659.59 526.375 1661.85 524.278ZM1646.69 911.74C1649.59 912.939 1651.04 916.085 1649.75 918.782C1648.63 921.479 1645.24 922.678 1642.34 921.629C1639.44 920.43 1637.98 917.284 1639.27 914.587C1640.4 911.89 1643.79 910.691 1646.69 911.74ZM1660.24 328.899C1658.78 331.446 1655.24 332.345 1652.5 330.996C1649.75 329.498 1648.79 326.202 1650.24 323.655C1651.85 321.107 1655.4 320.208 1658.14 321.707C1660.88 323.055 1661.85 326.351 1660.24 328.899ZM1661.04 654.63C1659.75 657.327 1656.37 658.526 1653.46 657.477C1650.56 656.279 1649.11 653.282 1650.4 650.435C1651.53 647.738 1654.91 646.54 1657.82 647.588C1660.72 648.787 1662.17 651.934 1661.04 654.63V654.63ZM1837.77 235.404C1842.44 237.802 1844.22 243.345 1841.47 247.69C1838.89 252.185 1832.93 253.684 1828.25 251.136C1823.58 248.739 1821.8 243.195 1824.54 238.85C1827.12 234.505 1833.09 232.857 1837.77 235.404ZM1854.37 682.949C1852.12 680.851 1852.12 677.555 1854.37 675.457C1856.63 673.359 1860.18 673.359 1862.44 675.457C1864.69 677.555 1864.69 680.851 1862.44 682.949C1860.18 685.046 1856.63 685.046 1854.37 682.949ZM1819.38 60.1024C1817.29 64.7471 1811.48 66.9946 1806.48 65.0468C1801.49 63.099 1799.23 57.7051 1801.32 53.2102C1803.42 48.5654 1809.06 46.3179 1814.06 48.2657C1819.06 50.2135 1821.48 55.4576 1819.38 60.1024ZM1854.05 551.697C1851.79 549.599 1851.79 546.303 1854.05 544.205C1856.31 542.108 1860.02 542.108 1862.27 544.205C1864.37 546.303 1864.37 549.599 1862.27 551.697C1860.02 553.794 1856.31 553.794 1854.05 551.697ZM1818.42 322.905C1815.68 321.557 1814.71 318.261 1816.32 315.713C1817.93 313.166 1821.32 312.267 1824.06 313.616C1826.8 315.114 1827.77 318.41 1826.32 320.958C1824.7 323.505 1821.16 324.404 1818.42 322.905ZM1827.28 134.269C1825.67 137.864 1821.32 139.513 1817.45 138.014C1813.58 136.516 1811.81 132.471 1813.42 128.875C1815.03 125.279 1819.38 123.631 1823.25 124.979C1827.12 126.477 1828.9 130.673 1827.28 134.269ZM1216.49 0.0202637H1225.36C1225.47 0.0202637 1225.58 0.0701935 1225.68 0.170081C1230.36 2.56737 1232.13 8.11111 1229.39 12.606C1226.81 16.9511 1220.85 18.4494 1216.17 16.0521C1211.49 13.505 1209.72 7.96128 1212.46 3.61619C1213.43 1.96805 1214.72 0.769417 1216.49 0.0202637ZM1874.85 749.024C1873.56 751.721 1870.34 753.069 1867.27 751.871C1864.37 750.672 1863.08 747.675 1864.21 744.978C1865.5 742.132 1868.89 740.933 1871.79 741.982C1874.69 743.18 1875.98 746.327 1874.85 749.024ZM1866.95 483.824C1863.73 486.97 1858.4 486.97 1855.18 483.824C1851.95 480.827 1851.95 475.882 1855.18 472.886C1858.4 469.889 1863.73 469.889 1866.95 472.886C1870.34 475.882 1870.34 480.827 1866.95 483.824ZM1855.34 399.469C1857.6 401.417 1857.6 404.863 1855.34 406.96C1853.08 409.058 1849.54 409.058 1847.28 406.96C1845.02 404.863 1845.02 401.417 1847.28 399.469C1849.54 397.371 1853.08 397.371 1855.34 399.469ZM1752.63 330.247C1756.66 332.345 1758.11 337.139 1755.85 340.885C1753.6 344.631 1748.44 345.979 1744.57 343.732C1740.54 341.634 1739.08 336.989 1741.34 333.244C1743.6 329.498 1748.76 328.149 1752.63 330.247ZM1832.12 623.765C1828.25 627.361 1822.12 627.361 1818.25 623.765C1814.39 620.169 1814.39 614.476 1818.25 610.88C1822.12 607.284 1828.25 607.284 1832.12 610.88C1835.99 614.476 1835.99 620.169 1832.12 623.765ZM1738.76 555.592C1741.83 552.895 1746.5 552.895 1749.56 555.592C1752.47 558.289 1752.47 562.784 1749.56 565.481C1746.5 568.178 1741.83 568.178 1738.76 565.481C1735.86 562.784 1735.86 558.289 1738.76 555.592ZM1755.53 237.502C1759.08 239.45 1760.37 243.795 1758.43 247.091C1756.34 250.537 1751.66 251.736 1748.11 249.788C1744.41 247.84 1743.12 243.645 1745.21 240.199C1747.31 236.903 1751.82 235.704 1755.53 237.502ZM1695.71 785.133C1691.36 783.485 1689.42 778.99 1691.19 774.944C1692.97 771.049 1697.81 769.101 1702 770.749C1706.35 772.397 1708.29 777.042 1706.51 780.938C1704.74 784.833 1699.9 786.781 1695.71 785.133ZM1745.7 903.349C1750.69 905.297 1752.95 910.541 1750.85 915.186C1748.76 919.831 1743.12 922.078 1738.12 920.13C1733.12 918.183 1730.7 912.938 1732.8 908.294C1734.89 903.649 1740.7 901.402 1745.7 903.349ZM1836.48 157.492C1833.73 156.144 1832.77 152.848 1834.38 150.3C1835.99 147.753 1839.38 146.854 1842.12 148.203C1844.86 149.701 1845.83 152.997 1844.38 155.544C1842.76 158.092 1839.22 158.991 1836.48 157.492ZM1828.74 915.635C1827.45 918.332 1824.22 919.681 1821.16 918.482C1818.25 917.433 1816.96 914.287 1818.09 911.59C1819.38 908.893 1822.77 907.545 1825.67 908.743C1828.57 909.792 1829.86 912.939 1828.74 915.635ZM1437.88 502.702C1440.14 500.605 1443.69 500.605 1445.94 502.702C1448.2 504.8 1448.2 508.096 1445.94 510.194C1443.69 512.291 1440.14 512.291 1437.88 510.194C1435.62 508.096 1435.62 504.8 1437.88 502.702ZM1825.51 822.441C1822.61 821.242 1821.16 818.096 1822.45 815.399C1823.58 812.702 1826.96 811.353 1829.86 812.552C1832.77 813.751 1834.22 816.747 1832.93 819.444C1831.8 822.291 1828.41 823.49 1825.51 822.441ZM1524.31 705.273C1521.4 704.224 1519.95 701.078 1521.24 698.381C1522.37 695.684 1525.76 694.336 1528.66 695.534C1531.56 696.583 1533.01 699.73 1531.72 702.426C1530.6 705.123 1527.21 706.472 1524.31 705.273ZM1533.82 552.596C1531.56 550.498 1531.56 547.052 1533.82 544.954C1536.08 543.007 1539.63 543.007 1541.88 544.954C1544.14 547.052 1544.14 550.498 1541.88 552.596C1539.63 554.693 1536.08 554.693 1533.82 552.596ZM1535.92 40.025C1534.47 42.5722 1530.92 43.4711 1528.18 42.1227C1525.44 40.6244 1524.47 37.3281 1525.92 34.781C1527.53 32.2339 1531.08 31.3349 1533.82 32.8332C1536.56 34.1816 1537.53 37.4779 1535.92 40.025ZM1523.66 620.169C1519.31 618.521 1517.37 614.026 1519.15 610.131C1520.92 606.085 1525.76 604.287 1530.11 605.936C1534.3 607.584 1536.4 612.079 1534.63 615.974C1532.85 620.02 1527.85 621.818 1523.66 620.169ZM1541.56 413.853C1543.82 415.95 1543.82 419.246 1541.56 421.344C1539.46 423.442 1535.76 423.442 1533.5 421.344C1531.24 419.246 1531.24 415.95 1533.5 413.853C1535.76 411.755 1539.46 411.755 1541.56 413.853ZM1529.47 119.885C1534.14 122.432 1535.76 127.976 1533.18 132.321C1530.43 136.666 1524.47 138.314 1519.79 135.767C1515.12 133.37 1513.5 127.826 1516.08 123.331C1518.82 118.986 1524.79 117.488 1529.47 119.885ZM1511.57 480.527C1515.28 483.973 1515.28 489.817 1511.57 493.263C1507.7 496.859 1501.57 496.859 1497.7 493.263C1493.83 489.817 1493.83 483.973 1497.7 480.527C1501.57 476.931 1507.7 476.931 1511.57 480.527ZM1696.19 870.237C1693.29 869.188 1692 866.041 1693.13 863.345C1694.42 860.648 1697.81 859.299 1700.71 860.348C1703.61 861.547 1704.9 864.693 1703.77 867.39C1702.48 870.087 1699.26 871.436 1696.19 870.237ZM1515.76 198.246C1518.5 199.745 1519.47 202.891 1517.86 205.438C1516.41 207.985 1512.86 209.034 1510.12 207.536C1507.38 206.037 1506.41 202.891 1507.86 200.194C1509.47 197.647 1513.02 196.748 1515.76 198.246ZM1457.07 315.863C1454.81 317.961 1451.1 317.961 1448.84 315.863C1446.75 313.766 1446.75 310.469 1448.84 308.372C1451.1 306.274 1454.81 306.274 1457.07 308.372C1459.33 310.469 1459.33 313.766 1457.07 315.863ZM1515.6 367.255C1511.89 365.307 1510.6 361.112 1512.7 357.666C1514.79 354.37 1519.31 353.171 1523.02 355.119C1526.56 356.917 1527.85 361.262 1525.92 364.558C1523.82 368.004 1519.15 369.203 1515.6 367.255V367.255ZM1547.85 314.065C1545.11 312.717 1544.14 309.421 1545.59 306.873C1547.2 304.326 1550.75 303.427 1553.49 304.776C1556.23 306.274 1557.2 309.57 1555.59 312.118C1554.14 314.665 1550.59 315.564 1547.85 314.065ZM1444.17 680.102C1445.3 677.405 1448.68 676.056 1451.59 677.255C1454.49 678.454 1455.94 681.45 1454.65 684.147C1453.52 686.994 1450.13 688.193 1447.23 687.144C1444.33 685.945 1442.88 682.799 1444.17 680.102ZM1439.49 381.04C1437.24 378.942 1437.24 375.496 1439.49 373.548C1441.75 371.45 1445.3 371.45 1447.56 373.548C1449.81 375.496 1449.81 378.942 1447.56 381.04C1445.3 383.137 1441.75 383.137 1439.49 381.04ZM1456.75 177.12C1459 179.218 1459 182.514 1456.75 184.612C1454.49 186.709 1450.94 186.709 1448.68 184.612C1446.43 182.514 1446.43 179.218 1448.68 177.12C1450.94 175.022 1454.49 175.022 1456.75 177.12ZM1468.36 568.628C1470.61 566.53 1474.16 566.53 1476.42 568.628C1478.67 570.725 1478.67 574.171 1476.42 576.119C1474.16 578.217 1470.61 578.217 1468.36 576.119C1466.1 574.171 1466.1 570.725 1468.36 568.628ZM1477.87 753.818C1476.58 756.515 1473.19 757.864 1470.29 756.665C1467.39 755.616 1465.94 752.47 1467.23 749.773C1468.52 747.076 1471.74 745.727 1474.64 746.926C1477.71 747.975 1479 751.121 1477.87 753.818V753.818ZM1515.76 796.97C1516.89 794.273 1520.28 792.924 1523.18 793.973C1526.08 795.172 1527.53 798.318 1526.24 801.015C1525.11 803.712 1521.73 805.06 1518.82 803.862C1515.92 802.813 1514.47 799.667 1515.76 796.97ZM1471.9 81.2285C1469.16 79.7302 1468.19 76.4339 1469.81 73.8868C1471.26 71.3396 1474.81 70.4407 1477.55 71.939C1480.29 73.2875 1481.25 76.5837 1479.8 79.1308C1478.19 81.678 1474.64 82.577 1471.9 81.2285ZM1503.51 265.221C1506.41 267.918 1506.41 272.412 1503.51 275.109C1500.44 277.806 1495.77 277.806 1492.7 275.109C1489.8 272.412 1489.8 267.918 1492.7 265.221C1495.77 262.524 1500.44 262.524 1503.51 265.221ZM1584.45 95.9119C1582.84 98.459 1579.29 99.358 1576.55 98.0095C1573.81 96.5112 1572.84 93.3648 1574.45 90.6678C1575.91 88.1207 1579.45 87.2217 1582.19 88.72C1584.93 90.2183 1585.9 93.3648 1584.45 95.9119ZM1718.28 63.5485C1716.99 66.2454 1713.61 67.5939 1710.71 66.5451C1707.8 65.3464 1706.51 62.2 1707.64 59.503C1708.93 56.8061 1712.16 55.4576 1715.06 56.6562C1718.12 57.7051 1719.41 60.8515 1718.28 63.5485V63.5485ZM1573.65 738.386C1578.65 740.334 1580.9 745.728 1578.97 750.372C1576.87 755.017 1571.07 757.115 1566.07 755.167C1561.07 753.369 1558.81 747.975 1560.91 743.33C1562.84 738.686 1568.65 736.588 1573.65 738.386V738.386ZM1591.55 431.233C1594.45 432.581 1595.42 435.878 1593.8 438.425C1592.19 440.972 1588.8 441.871 1586.06 440.522C1583.16 439.024 1582.19 435.728 1583.81 433.181C1585.42 430.634 1588.8 429.735 1591.55 431.233ZM1603.16 577.917C1602.03 580.614 1598.64 581.963 1595.74 580.764C1592.84 579.715 1591.38 576.569 1592.67 573.872C1593.8 571.175 1597.19 569.826 1600.09 571.025C1602.99 572.074 1604.45 575.22 1603.16 577.917ZM1687.65 961.783C1688.94 959.086 1692.32 957.888 1695.23 958.937C1698.13 960.135 1699.42 963.132 1698.29 965.979C1697 968.676 1693.77 969.874 1690.71 968.825C1687.81 967.627 1686.52 964.48 1687.65 961.783ZM1688.29 455.805C1685.55 454.457 1684.42 451.16 1686.03 448.613C1687.65 446.066 1691.03 445.167 1693.94 446.516C1696.68 448.014 1697.64 451.31 1696.03 453.857C1694.42 456.404 1691.03 457.303 1688.29 455.805ZM1706.67 169.479C1709.42 170.977 1710.54 174.123 1708.93 176.671C1707.32 179.368 1703.93 180.267 1701.03 178.768C1698.29 177.27 1697.32 174.124 1698.93 171.576C1700.55 168.879 1703.93 167.98 1706.67 169.479V169.479ZM1718.93 692.388C1721.19 694.485 1721.19 697.782 1718.93 699.879C1716.67 701.977 1713.12 701.977 1710.87 699.879C1708.61 697.782 1708.61 694.485 1710.87 692.388C1713.12 690.29 1716.67 690.29 1718.93 692.388ZM1588.48 652.832C1590.09 649.237 1594.45 647.588 1598.32 649.087C1602.19 650.585 1604.12 654.631 1602.51 658.226C1600.9 661.822 1596.38 663.62 1592.51 662.122C1588.64 660.624 1586.87 656.428 1588.48 652.832V652.832ZM1613.15 26.9898C1611.54 29.5369 1607.99 30.4359 1605.25 29.0874C1602.51 27.5891 1601.54 24.2928 1603.16 21.7457C1604.61 19.1986 1608.15 18.2996 1610.9 19.7979C1613.64 21.1464 1614.6 24.4427 1613.15 26.9898ZM1625.73 165.733C1623.63 169.179 1618.96 170.378 1615.41 168.43C1611.7 166.482 1610.41 162.287 1612.51 158.841C1614.6 155.545 1619.12 154.346 1622.83 156.294C1626.37 158.092 1627.66 162.437 1625.73 165.733V165.733ZM1612.35 222.818C1609.61 221.47 1608.64 218.174 1610.09 215.627C1611.7 213.079 1615.25 212.181 1617.99 213.679C1620.73 215.027 1621.7 218.324 1620.09 220.871C1618.63 223.418 1615.09 224.317 1612.35 222.818ZM1601.87 267.768C1603.48 265.221 1606.86 264.322 1609.61 265.82C1612.35 267.168 1613.47 270.465 1611.86 273.012C1610.25 275.559 1606.86 276.458 1603.96 274.96C1601.22 273.611 1600.25 270.315 1601.87 267.768ZM1616.06 845.065C1617.34 842.368 1620.73 841.02 1623.63 842.218C1626.54 843.267 1627.83 846.414 1626.7 849.111C1625.41 851.808 1622.18 853.156 1619.12 851.957C1616.22 850.909 1614.93 847.762 1616.06 845.065ZM1605.25 352.872C1610.09 355.419 1611.7 360.962 1608.96 365.307C1606.38 369.653 1600.41 371.151 1595.74 368.754C1591.06 366.206 1589.29 360.663 1592.03 356.318C1594.61 351.973 1600.58 350.474 1605.25 352.872ZM1582.84 815.249C1586.71 816.747 1588.48 820.793 1586.87 824.389C1585.26 827.985 1580.9 829.783 1577.03 828.284C1573.16 826.786 1571.39 822.591 1573 818.995C1574.62 815.399 1578.97 813.751 1582.84 815.249ZM1588.32 511.842C1585.42 514.539 1580.58 514.539 1577.68 511.842C1574.62 508.995 1574.62 504.65 1577.68 501.803C1580.58 499.106 1585.42 499.106 1588.32 501.803C1591.22 504.65 1591.22 508.995 1588.32 511.842Z" fill="url(#paint2_linear_1_110)"/>
<path style="mix-blend-mode:screen" d="M1920 780.339L1869.21 732.992L1698.77 574.771L1521.08 409.658L1472.39 364.409L1541.24 409.208C1557.2 410.856 1572.84 417.449 1585.1 428.836C1590.9 434.23 1595.58 440.223 1598.96 446.666C1632.02 431.982 1672.81 437.226 1700.22 462.698C1711.67 473.336 1719.25 486.071 1723.12 499.556C1765.53 487.27 1813.74 496.709 1847.28 527.874C1882.11 560.237 1891.62 607.134 1876.14 647.439C1891.94 650.735 1906.94 657.477 1920 667.516V780.339Z" fill="url(#paint3_linear_1_110)"/>
<path style="mix-blend-mode:screen" d="M1920 525.027L1798.91 412.504L1736.5 354.37L1582.84 211.731L1422.56 62.6496L1378.7 22.0455L1440.78 62.35C1455.13 63.8483 1469.16 69.6917 1480.29 80.03C1485.45 84.8246 1489.64 90.3683 1492.86 96.2117C1522.53 82.8768 1559.46 87.6714 1584.13 110.595C1594.45 120.185 1601.22 131.722 1604.77 143.858C1642.98 132.77 1686.36 141.161 1716.67 169.329C1748.11 198.546 1756.82 240.798 1742.79 277.207C1759.56 280.653 1775.53 288.444 1788.59 300.581C1816.32 326.352 1823.09 364.259 1808.74 395.873L1920 519.933V525.027Z" fill="url(#paint4_linear_1_110)"/>
<path style="mix-blend-mode:screen" d="M1464.32 592.9L1300.18 440.373L1230.84 375.946L1060.57 217.724L882.717 52.4611L834.183 7.36206L903.034 52.0116C918.997 53.8096 934.476 60.2523 946.892 71.6394C952.697 77.0333 957.212 83.1764 960.759 89.6191C993.653 74.7859 1034.61 80.1798 1061.86 105.501C1073.31 116.139 1081.05 129.025 1084.92 142.509C1127.32 130.073 1175.38 139.513 1208.91 170.827C1243.74 203.041 1253.42 249.938 1237.94 290.392C1256.48 294.288 1274.22 302.828 1288.73 316.313C1319.53 344.931 1326.94 386.883 1311.14 421.944L1464.32 592.9Z" fill="url(#paint5_linear_1_110)"/>
<path d="M0.228504 1039.55V40.4747C0.228508 -2.22707 -3.80248 0.0203849 21.9964 0.0203849H624.565C626.07 6.1135 627.091 12.3065 627.629 18.5994C627.736 18.5994 627.844 18.5994 627.951 18.5994C706.316 18.5994 769.846 77.6327 769.846 150.45C769.846 174.124 763.074 196.448 751.303 215.627C762.107 218.473 772.426 223.568 781.133 231.209C791.937 240.499 799.031 252.335 802.095 264.771C842.245 257.579 885.136 267.768 917.223 295.486C952.213 325.752 965.435 369.353 956.728 409.807C971.401 415.8 985.43 424.041 997.845 434.829C1016.71 451.16 1029.77 471.238 1036.87 492.514C1080.24 484.723 1126.68 495.66 1161.51 525.776C1167.31 530.87 1192.47 558.439 1199.08 584.81L1378.22 479.179L1416.11 512.142L1307.92 682.649C1340.97 685.646 1365 701.977 1370.96 707.221C1405.79 737.337 1420.63 779.739 1415.31 820.343C1438.85 825.438 1461.26 836.225 1480.13 852.557C1497.86 867.84 1510.28 886.419 1517.7 906.346C1562.68 891.363 1614.93 899.754 1652.17 932.117C1684.26 959.986 1698.13 999.091 1693.29 1036.7C1707 1038.65 1720.06 1044.34 1730.86 1053.78C1734.3 1056.78 1737.36 1060.02 1740.05 1063.52C1787.13 1043.74 1843.41 1048.69 1885.98 1078.95C1882.97 1079.65 1879.8 1080 1876.46 1080H43.7644C0.228512 1080 0.228504 1080 0.228504 1039.55Z" fill="white"/>
<path d="M1354.03 464.346C1365.97 475.433 1420.3 525.776 1432.08 536.864C1427.56 541.059 1424.66 542.857 1418.69 545.704C1408.05 535.815 1355.16 486.67 1344.68 476.931C1347.75 471.238 1349.52 468.691 1354.03 464.346V464.346Z" fill="url(#paint6_linear_1_110)"/>
<path style="mix-blend-mode:screen" fill-rule="evenodd" clip-rule="evenodd" d="M1369.51 500.006C1368.87 499.406 1368.22 498.807 1367.58 498.208L1379.03 487.57C1379.67 488.169 1380.32 488.768 1380.96 489.368L1369.51 500.006ZM1362.1 493.113C1361.45 492.514 1360.81 491.915 1360.16 491.315L1371.61 480.677C1372.25 481.177 1372.9 481.726 1373.54 482.326L1362.1 493.113ZM1365.8 496.709C1365.16 496.11 1364.51 495.511 1363.87 494.911L1375.32 484.273C1375.96 484.873 1376.61 485.472 1377.25 486.071L1365.8 496.709ZM1350.81 482.775C1350.16 482.176 1349.52 481.576 1348.87 480.977L1360.32 470.339C1360.97 470.938 1361.61 471.538 1362.26 472.137L1350.81 482.775ZM1377.09 507.048C1376.45 506.448 1375.8 505.849 1375.16 505.25L1386.6 494.612C1387.25 495.211 1387.89 495.81 1388.54 496.41L1377.09 507.048ZM1373.22 503.602C1372.58 503.002 1371.99 502.403 1371.45 501.804L1382.9 491.166C1383.54 491.765 1384.13 492.364 1384.67 492.964L1373.22 503.602ZM1380.8 510.494C1380.16 509.894 1379.51 509.295 1378.87 508.696L1390.31 498.058C1390.96 498.657 1391.6 499.256 1392.25 499.856L1380.8 510.494ZM1358.39 489.667C1357.74 489.068 1357.1 488.469 1356.45 487.869L1367.9 477.231C1368.55 477.831 1369.19 478.43 1369.84 479.029L1358.39 489.667ZM1356.61 466.743C1357.26 467.342 1357.9 467.942 1358.55 468.541L1347.1 479.179C1346.35 478.58 1345.7 477.98 1345.17 477.381L1356.61 466.743ZM1354.68 486.221C1353.93 485.622 1353.28 485.022 1352.74 484.423L1364.19 473.785C1364.84 474.385 1365.48 474.984 1366.13 475.583L1354.68 486.221ZM1410.79 538.362C1410.15 537.763 1409.5 537.164 1408.86 536.564L1420.3 525.926C1420.95 526.526 1421.59 527.125 1422.24 527.724L1410.79 538.362ZM1414.5 541.808C1413.86 541.209 1413.21 540.61 1412.57 540.01L1424.01 529.372C1424.66 529.972 1425.3 530.571 1425.95 531.17L1414.5 541.808ZM1407.08 534.766C1406.44 534.267 1405.79 533.717 1405.15 533.118L1416.6 522.48C1417.24 523.079 1417.89 523.629 1418.53 524.128L1407.08 534.766ZM1403.21 531.32C1402.68 530.721 1402.08 530.122 1401.44 529.522L1412.89 518.884C1413.53 519.484 1414.12 520.083 1414.66 520.682L1403.21 531.32ZM1384.51 513.94C1383.86 513.341 1383.27 512.741 1382.73 512.142L1394.18 501.504C1394.83 502.103 1395.42 502.703 1395.96 503.302L1384.51 513.94ZM1418.21 545.254C1417.67 544.755 1417.03 544.156 1416.27 543.456L1427.72 532.819C1428.47 533.418 1429.12 534.017 1429.66 534.616L1418.21 545.254ZM1399.5 527.874C1398.86 527.275 1398.21 526.675 1397.57 526.076L1409.18 515.438C1409.82 516.037 1410.42 516.637 1410.95 517.236L1399.5 527.874ZM1388.38 517.386C1387.73 516.787 1387.09 516.187 1386.44 515.588L1397.89 504.95C1398.54 505.549 1399.18 506.149 1399.83 506.748L1388.38 517.386ZM1392.09 520.832C1391.44 520.233 1390.8 519.633 1390.15 519.034L1401.6 508.396C1402.25 508.995 1402.89 509.595 1403.54 510.194L1392.09 520.832ZM1395.8 524.278C1395.15 523.779 1394.51 523.229 1393.86 522.63L1405.31 511.992C1405.95 512.591 1406.6 513.141 1407.24 513.64L1395.8 524.278Z" fill="url(#paint7_linear_1_110)"/>
<path d="M1353.55 485.172C1363.22 494.162 1399.99 528.324 1409.66 537.313C1405.15 541.509 1402.41 543.307 1396.6 546.453C1388.06 538.512 1352.42 505.4 1343.88 497.458C1347.1 492.065 1349.03 489.517 1353.55 485.172V485.172Z" fill="url(#paint8_linear_1_110)"/>
<path style="mix-blend-mode:screen" fill-rule="evenodd" clip-rule="evenodd" d="M1360.32 512.741C1359.78 512.241 1359.25 511.792 1358.71 511.392L1370.32 500.754C1370.75 501.154 1371.23 501.603 1371.77 502.103L1360.32 512.741ZM1369.51 521.281C1368.98 520.782 1368.44 520.282 1367.9 519.783L1379.35 509.145C1379.89 509.644 1380.42 510.144 1380.96 510.643L1369.51 521.281ZM1366.45 518.434C1365.91 517.935 1365.37 517.436 1364.84 516.936L1376.29 506.298C1376.82 506.798 1377.36 507.297 1377.9 507.796L1366.45 518.434ZM1363.39 515.588C1362.85 515.088 1362.31 514.589 1361.77 514.089L1373.38 503.451C1373.81 503.951 1374.3 504.45 1374.83 504.95L1363.39 515.588ZM1348.23 501.504C1347.69 501.004 1347.15 500.505 1346.62 500.005L1358.06 489.367C1358.6 489.867 1359.14 490.366 1359.68 490.866L1348.23 501.504ZM1355.16 486.521C1355.59 487.02 1356.08 487.519 1356.61 488.019L1345.17 498.657C1344.74 498.157 1344.31 497.708 1343.88 497.308C1344.09 497.009 1344.25 496.709 1344.36 496.409L1355.16 486.521ZM1351.45 504.35C1350.92 503.851 1350.38 503.352 1349.84 502.852L1361.29 492.214C1361.83 492.714 1362.36 493.213 1362.9 493.712L1351.45 504.35ZM1354.52 507.047C1353.98 506.648 1353.44 506.198 1352.9 505.699L1364.35 495.061C1364.89 495.56 1365.43 496.01 1365.97 496.409L1354.52 507.047ZM1357.42 509.894C1356.99 509.395 1356.51 508.945 1355.97 508.546L1367.42 497.908C1367.95 498.307 1368.44 498.757 1368.87 499.256L1357.42 509.894ZM1387.89 538.062C1387.36 537.663 1386.82 537.213 1386.28 536.714L1397.73 526.076C1398.27 526.575 1398.81 527.025 1399.34 527.424L1387.89 538.062ZM1390.96 540.909C1390.42 540.51 1389.88 540.06 1389.35 539.561L1400.79 528.923C1401.33 529.422 1401.87 529.872 1402.41 530.271L1390.96 540.909ZM1372.74 523.978C1372.2 523.479 1371.66 523.029 1371.13 522.63L1382.57 511.992C1383.11 512.391 1383.65 512.841 1384.19 513.34L1372.74 523.978ZM1396.76 546.453C1396.33 546.053 1395.9 545.604 1395.47 545.104L1406.92 534.466C1407.46 534.966 1407.94 535.465 1408.37 535.965L1397.73 545.853C1397.41 546.053 1397.09 546.253 1396.76 546.453V546.453ZM1394.02 543.756C1393.48 543.256 1392.95 542.757 1392.41 542.258L1403.86 531.62C1404.4 532.119 1404.93 532.618 1405.47 533.118L1394.02 543.756ZM1378.7 529.672C1378.27 529.172 1377.79 528.673 1377.25 528.173L1388.7 517.535C1389.24 518.035 1389.78 518.534 1390.31 519.034L1378.7 529.672ZM1384.67 535.215C1384.13 534.816 1383.65 534.366 1383.22 533.867L1394.67 523.229C1395.2 523.728 1395.69 524.178 1396.12 524.578L1384.67 535.215ZM1375.64 526.825C1375.1 526.326 1374.57 525.826 1374.03 525.327L1385.48 514.689C1386.01 515.188 1386.55 515.688 1387.09 516.187L1375.64 526.825ZM1381.61 532.369C1381.18 531.969 1380.69 531.52 1380.16 531.02L1391.6 520.382C1392.14 520.882 1392.68 521.331 1393.22 521.731L1381.61 532.369Z" fill="url(#paint9_linear_1_110)"/>
<path style="mix-blend-mode:multiply" d="M1353.55 485.172C1363.22 494.162 1399.99 528.324 1409.66 537.313C1405.15 541.509 1402.41 543.307 1396.6 546.453C1388.06 538.512 1352.42 505.4 1343.88 497.458C1347.1 492.065 1349.03 489.517 1353.55 485.172V485.172Z" fill="url(#paint10_linear_1_110)"/>
<path d="M1190.85 786.781C1190.85 786.781 1263.41 649.087 1312.43 603.539C1361.61 557.84 1399.02 554.544 1419.82 574.022C1440.78 593.35 1437.24 628.111 1388.06 673.809C1339.04 719.358 1190.85 786.781 1190.85 786.781V786.781Z" fill="#EFC52E"/>
<path d="M1190.85 786.781C1190.85 786.781 1263.41 649.087 1312.43 603.539C1361.61 557.84 1399.02 554.544 1419.82 574.022C1440.78 593.35 1437.24 628.111 1388.06 673.809C1339.04 719.358 1190.85 786.781 1190.85 786.781V786.781Z" fill="url(#paint11_linear_1_110)"/>
<path d="M1236 744.829C1236 744.829 1293.08 636.501 1331.78 600.542C1370.32 564.732 1399.83 562.185 1416.11 577.468C1432.56 592.751 1429.82 620.02 1391.28 655.979C1352.58 691.789 1236 744.829 1236 744.829Z" fill="url(#paint12_radial_1_110)"/>
<path d="M1236 744.829C1236 744.829 1293.08 636.501 1331.78 600.542C1370.32 564.732 1399.83 562.185 1416.11 577.468C1432.56 592.751 1429.82 620.02 1391.28 655.979C1352.58 691.789 1236 744.829 1236 744.829Z" fill="url(#paint13_linear_1_110)"/>
<path d="M1297.28 687.893C1297.28 687.893 1335.01 616.424 1360.48 592.751C1385.96 569.078 1405.31 567.28 1416.11 577.468C1427.08 587.507 1425.14 605.486 1399.67 629.16C1374.19 652.833 1297.28 687.893 1297.28 687.893V687.893Z" fill="url(#paint14_linear_1_110)"/>
<path d="M1085.56 689.092C1085.56 689.092 1158.28 551.248 1207.3 505.699C1256.32 460.15 1293.73 456.854 1314.69 476.182C1335.49 495.66 1331.94 530.421 1282.92 575.97C1233.91 621.518 1085.56 689.092 1085.56 689.092Z" fill="#EFC52E"/>
<path d="M1085.56 689.092C1085.56 689.092 1158.28 551.248 1207.3 505.699C1256.32 460.15 1293.73 456.854 1314.69 476.182C1335.49 495.66 1331.94 530.421 1282.92 575.97C1233.91 621.518 1085.56 689.092 1085.56 689.092Z" fill="url(#paint15_linear_1_110)"/>
<path d="M1130.71 647.139C1130.71 647.139 1187.95 538.662 1226.49 502.852C1265.19 467.043 1294.53 464.346 1310.98 479.629C1327.43 494.911 1324.69 522.33 1285.99 558.14C1247.45 593.949 1130.71 647.139 1130.71 647.139Z" fill="url(#paint16_radial_1_110)"/>
<path d="M1130.71 647.139C1130.71 647.139 1187.95 538.662 1226.49 502.852C1265.19 467.043 1294.53 464.346 1310.98 479.629C1327.43 494.911 1324.69 522.33 1285.99 558.14C1247.45 593.949 1130.71 647.139 1130.71 647.139Z" fill="url(#paint17_linear_1_110)"/>
<path d="M1192.14 590.204C1192.14 590.204 1229.88 518.585 1255.19 494.911C1280.67 471.388 1300.18 469.59 1310.98 479.629C1321.78 489.817 1320.01 507.797 1294.53 531.47C1269.06 555.143 1192.14 590.204 1192.14 590.204Z" fill="url(#paint18_linear_1_110)"/>
<path d="M1350.81 461.349C1395.31 412.654 1446.59 360.963 1486.25 323.954C1580.42 236.453 1681.84 194.051 1725.38 178.469C1734.41 175.322 1743.12 183.563 1739.73 191.804C1723.12 232.258 1677.33 326.502 1583.16 414.003C1543.5 451.011 1487.7 498.657 1435.46 540.01L1350.81 461.349Z" fill="url(#paint19_linear_1_110)"/>
<path style="mix-blend-mode:multiply" d="M1464.81 353.471C1464.81 353.471 1452.71 409.807 1401.6 457.304C1393.54 464.795 1383.7 473.335 1373.22 482.175L1350.81 461.349C1383.38 425.689 1419.5 388.531 1452.23 356.617C1460.13 354.22 1464.81 353.471 1464.81 353.471Z" fill="url(#paint20_linear_1_110)"/>
<path style="mix-blend-mode:multiply" d="M1739.73 191.804C1723.12 232.258 1677.33 326.502 1583.16 414.003C1543.5 451.011 1487.7 498.657 1435.46 540.01L1410.47 516.787C1462.71 475.433 1518.5 427.787 1558.33 390.779C1641.21 313.766 1686.68 231.359 1707.64 185.211C1714.25 182.514 1720.22 180.417 1725.38 178.469C1734.41 175.322 1743.12 183.563 1739.73 191.804V191.804Z" fill="url(#paint21_linear_1_110)"/>
<path d="M1568.97 258.478C1634.76 213.979 1694.58 189.407 1725.54 178.469C1734.41 175.322 1743.12 183.563 1739.73 191.804C1727.96 220.421 1701.51 276.159 1653.79 337.289L1568.97 258.478Z" fill="url(#paint22_linear_1_110)"/>
<path style="mix-blend-mode:multiply" d="M1740.21 190.305C1740.11 190.805 1739.94 191.304 1739.73 191.804C1739.08 193.502 1738.33 195.25 1737.47 197.048C1737.36 197.347 1737.26 197.647 1737.15 197.947C1736.4 199.745 1735.59 201.543 1734.73 203.341C1734.73 203.54 1734.68 203.74 1734.57 203.94C1733.6 205.938 1732.63 208.085 1731.67 210.383C1731.56 210.682 1731.45 210.932 1731.34 211.132C1730.38 213.129 1729.41 215.177 1728.44 217.275C1728.23 217.674 1728.01 218.074 1727.8 218.473C1725.54 223.268 1723.07 228.312 1720.38 233.606C1720.06 234.106 1719.79 234.555 1719.57 234.955C1716.78 240.349 1713.77 245.992 1710.54 251.886C1710.33 252.285 1710.06 252.735 1709.74 253.234C1708.34 255.831 1706.84 258.478 1705.22 261.175C1705.01 261.575 1704.79 261.974 1704.58 262.374C1702.75 265.47 1700.87 268.567 1698.93 271.663C1698.83 271.963 1698.67 272.213 1698.45 272.412C1696.73 275.309 1694.96 278.256 1693.13 281.252C1692.81 281.852 1692.43 282.401 1692 282.901C1687.92 289.393 1683.56 295.986 1678.94 302.678C1678.51 303.377 1678.08 304.027 1677.65 304.626C1675.61 307.723 1673.46 310.769 1671.2 313.766C1670.99 314.165 1670.77 314.565 1670.56 314.964C1668.08 318.361 1665.5 321.807 1662.82 325.303C1662.39 325.902 1662.01 326.451 1661.69 326.951C1659.43 329.947 1657.12 332.944 1654.75 335.941C1654.43 336.34 1654.11 336.79 1653.79 337.289L1628.79 314.065C1668.62 263.123 1693.61 216.076 1707.64 185.211C1709.09 184.612 1710.54 184.012 1712 183.563C1712.43 183.363 1712.86 183.163 1713.29 182.964C1715.11 182.264 1716.89 181.615 1718.61 181.016C1719.04 180.816 1719.52 180.666 1720.06 180.566C1721.89 179.867 1723.71 179.168 1725.54 178.469C1726.08 178.269 1726.61 178.119 1727.15 178.019C1729.25 177.57 1731.34 177.869 1733.28 178.469C1733.28 178.469 1733.33 178.469 1733.44 178.469C1733.55 178.569 1733.66 178.668 1733.76 178.768C1736.34 179.667 1738.28 181.615 1739.41 183.863C1740.37 185.661 1740.86 187.908 1740.21 190.305V190.305Z" fill="url(#paint23_linear_1_110)"/>
<path d="M1394.02 558.589C1411.92 538.212 1432.88 516.637 1449.17 501.504C1500.28 454.008 1561.07 442.92 1561.07 442.92C1561.07 442.92 1548.98 499.256 1497.86 546.753C1481.58 561.886 1458.36 581.364 1436.59 597.995L1394.02 558.589Z" fill="url(#paint24_linear_1_110)"/>
<path d="M1483.67 475.134C1524.15 449.663 1561.07 442.92 1561.07 442.92C1561.07 442.92 1553.65 477.082 1526.24 514.689L1483.67 475.134Z" fill="url(#paint25_linear_1_110)"/>
<path d="M1391.44 541.658C1343.71 573.872 1302.11 585.109 1302.11 585.109C1302.11 585.109 1314.21 546.603 1349.03 502.253L1391.44 541.658Z" fill="url(#paint26_linear_1_110)"/>
<path d="M1397.41 561.736C1409.34 572.723 1421.22 583.761 1433.04 594.848C1428.53 599.043 1425.63 600.841 1419.66 603.538C1409.13 593.749 1398.59 583.96 1388.06 574.172C1390.96 568.628 1392.89 565.931 1397.41 561.736V561.736Z" fill="url(#paint27_linear_1_110)"/>
<path d="M1288.89 460.75C1306.79 440.523 1327.75 418.947 1344.04 403.814C1395.15 356.318 1455.78 345.081 1455.78 345.081C1455.78 345.081 1443.85 401.567 1392.73 448.913C1376.29 464.196 1353.23 483.674 1331.3 500.305L1288.89 460.75Z" fill="url(#paint28_linear_1_110)"/>
<path d="M1378.54 377.294C1419.01 351.973 1455.78 345.081 1455.78 345.081C1455.78 345.081 1448.52 379.392 1421.11 416.849L1378.54 377.294Z" fill="url(#paint29_linear_1_110)"/>
<path d="M1292.28 463.896C1304.1 474.984 1315.98 486.071 1327.91 497.159C1323.4 501.354 1320.49 503.002 1314.37 505.849C1303.83 496.06 1293.3 486.271 1282.76 476.482C1285.83 470.939 1287.76 468.242 1292.28 463.896Z" fill="url(#paint30_linear_1_110)"/>
<path d="M1597.35 363.51C1581.71 378.043 1556.23 378.043 1540.59 363.51C1525.11 348.976 1525.11 325.453 1540.59 310.919C1556.23 296.386 1581.71 296.386 1597.35 310.919C1612.99 325.453 1612.99 348.976 1597.35 363.51Z" fill="url(#paint31_linear_1_110)"/>
<path d="M1594.45 360.813C1580.42 373.998 1557.52 373.998 1543.5 360.813C1529.47 347.778 1529.47 326.651 1543.5 313.466C1557.52 300.431 1580.42 300.431 1594.45 313.466C1608.48 326.651 1608.48 347.778 1594.45 360.813Z" fill="url(#paint32_linear_1_110)"/>
<path d="M1593.48 360.064C1579.94 372.649 1558.01 372.649 1544.46 360.064C1530.76 347.478 1530.76 326.951 1544.46 314.365C1558.01 301.78 1579.94 301.78 1593.48 314.365C1607.19 326.951 1607.19 347.478 1593.48 360.064Z" fill="url(#paint33_linear_1_110)"/>
<path d="M1588 354.97C1577.52 364.709 1560.43 364.709 1549.95 354.97C1539.3 345.081 1539.3 329.199 1549.95 319.46C1560.43 309.721 1577.52 309.721 1588 319.46C1598.64 329.199 1598.64 345.081 1588 354.97Z" fill="url(#paint34_linear_1_110)"/>
<path d="M1586.71 353.771C1576.87 362.91 1561.07 362.91 1551.24 353.771C1541.4 344.631 1541.4 329.798 1551.24 320.658C1561.07 311.519 1576.87 311.519 1586.71 320.658C1596.54 329.798 1596.54 344.631 1586.71 353.771Z" fill="#60A8F7"/>
<path style="mix-blend-mode:screen" fill-rule="evenodd" clip-rule="evenodd" d="M1586.71 353.771C1584.99 355.369 1583.11 356.668 1581.07 357.667V316.763C1583.11 317.762 1584.99 319.06 1586.71 320.658V353.771V353.771ZM1570.75 360.513V313.916C1569.67 313.816 1568.6 313.816 1567.52 313.916V360.513C1568.6 360.613 1569.67 360.613 1570.75 360.513ZM1555.59 356.917C1557.63 358.116 1559.83 359.015 1562.2 359.614V314.665C1559.83 315.264 1557.63 316.213 1555.59 317.512V356.917Z" fill="url(#paint35_linear_1_110)"/>
<path d="M1592.19 318.411C1591.38 319.16 1590.09 319.16 1589.29 318.411C1588.32 317.662 1588.32 316.313 1589.29 315.564C1590.09 314.815 1591.38 314.815 1592.19 315.564C1593.16 316.313 1593.16 317.662 1592.19 318.411Z" fill="url(#paint36_linear_1_110)"/>
<path d="M1599.77 339.237C1598.48 339.237 1597.51 338.338 1597.51 337.14C1597.51 336.091 1598.48 335.192 1599.77 335.192C1600.9 335.192 1601.87 336.091 1601.87 337.14C1601.87 338.338 1600.9 339.237 1599.77 339.237Z" fill="url(#paint37_linear_1_110)"/>
<path d="M1589.29 358.865C1588.32 358.116 1588.32 356.768 1589.29 356.018C1590.09 355.269 1591.38 355.269 1592.19 356.018C1593.16 356.768 1593.16 358.116 1592.19 358.865C1591.38 359.614 1590.09 359.614 1589.29 358.865Z" fill="url(#paint38_linear_1_110)"/>
<path d="M1566.88 365.757C1566.88 364.708 1567.84 363.809 1568.97 363.809C1570.1 363.809 1571.07 364.708 1571.07 365.757C1571.07 366.956 1570.1 367.855 1568.97 367.855C1567.84 367.855 1566.88 366.956 1566.88 365.757Z" fill="url(#paint39_linear_1_110)"/>
<path d="M1545.75 356.018C1546.56 355.269 1547.85 355.269 1548.82 356.018C1549.62 356.768 1549.62 358.116 1548.82 358.865C1547.85 359.614 1546.56 359.614 1545.75 358.865C1544.79 358.116 1544.79 356.768 1545.75 356.018Z" fill="url(#paint40_linear_1_110)"/>
<path d="M1538.17 335.192C1539.46 335.192 1540.43 336.091 1540.43 337.14C1540.43 338.338 1539.46 339.237 1538.17 339.237C1537.05 339.237 1536.08 338.338 1536.08 337.14C1536.08 336.091 1537.05 335.192 1538.17 335.192Z" fill="url(#paint41_linear_1_110)"/>
<path d="M1548.82 315.564C1549.62 316.313 1549.62 317.662 1548.82 318.411C1547.85 319.16 1546.56 319.16 1545.75 318.411C1544.79 317.662 1544.79 316.313 1545.75 315.564C1546.56 314.815 1547.85 314.815 1548.82 315.564Z" fill="url(#paint42_linear_1_110)"/>
<path d="M1571.07 308.672C1571.07 309.721 1570.1 310.62 1568.97 310.62C1567.84 310.62 1566.88 309.721 1566.88 308.672C1566.88 307.473 1567.84 306.574 1568.97 306.574C1570.1 306.574 1571.07 307.473 1571.07 308.672Z" fill="url(#paint43_linear_1_110)"/>
<path d="M1527.05 429.435C1511.09 444.268 1485.45 444.268 1469.65 429.435C1453.84 414.752 1453.84 390.929 1469.65 376.245C1485.45 361.562 1511.09 361.562 1527.05 376.245C1542.85 390.929 1542.85 414.752 1527.05 429.435Z" fill="url(#paint44_linear_1_110)"/>
<path d="M1523.82 426.588C1509.8 439.624 1486.9 439.624 1472.87 426.588C1458.84 413.403 1458.84 392.277 1472.87 379.242C1486.9 366.057 1509.8 366.057 1523.82 379.242C1537.85 392.277 1537.85 413.403 1523.82 426.588Z" fill="url(#paint45_linear_1_110)"/>
<path d="M1522.86 425.689C1509.31 438.275 1487.38 438.275 1473.68 425.689C1460.13 413.104 1460.13 392.577 1473.68 379.991C1487.38 367.405 1509.31 367.405 1522.86 379.991C1536.4 392.577 1536.4 413.104 1522.86 425.689Z" fill="url(#paint46_linear_1_110)"/>
<path d="M1517.37 420.595C1506.89 430.334 1489.8 430.334 1479.16 420.595C1468.68 410.856 1468.68 394.974 1479.16 385.085C1489.8 375.346 1506.89 375.346 1517.37 385.085C1528.02 394.974 1528.02 410.856 1517.37 420.595Z" fill="url(#paint47_linear_1_110)"/>
<path d="M1516.08 419.397C1506.25 428.536 1490.28 428.536 1480.61 419.397C1470.77 410.257 1470.77 395.424 1480.61 386.284C1490.28 377.294 1506.25 377.294 1516.08 386.284C1525.92 395.424 1525.92 410.257 1516.08 419.397Z" fill="#60A8F7"/>
<path style="mix-blend-mode:screen" fill-rule="evenodd" clip-rule="evenodd" d="M1484.64 383.287C1486.79 381.989 1489.05 381.04 1491.41 380.441V425.24C1489.05 424.641 1486.79 423.742 1484.64 422.543V383.287ZM1496.73 426.139V379.542C1497.81 379.442 1498.88 379.442 1499.96 379.542V426.139C1498.88 426.239 1497.81 426.239 1496.73 426.139ZM1515.92 419.547C1514.2 421.145 1512.32 422.443 1510.28 423.442V382.239C1512.32 383.238 1514.2 384.536 1515.92 386.134V419.547Z" fill="url(#paint48_linear_1_110)"/>
<path d="M1521.57 384.036C1520.76 384.785 1519.47 384.785 1518.5 384.036C1517.7 383.287 1517.7 382.089 1518.5 381.19C1519.47 380.44 1520.76 380.44 1521.57 381.19C1522.37 382.089 1522.37 383.287 1521.57 384.036Z" fill="url(#paint49_linear_1_110)"/>
<path d="M1529.14 404.863C1527.85 404.863 1526.89 403.964 1526.89 402.915C1526.89 401.717 1527.85 400.818 1529.14 400.818C1530.27 400.818 1531.24 401.717 1531.24 402.915C1531.24 403.964 1530.27 404.863 1529.14 404.863Z" fill="url(#paint50_linear_1_110)"/>
<path d="M1518.5 424.491C1517.7 423.742 1517.7 422.393 1518.5 421.644C1519.47 420.895 1520.76 420.895 1521.57 421.644C1522.37 422.393 1522.37 423.742 1521.57 424.491C1520.76 425.24 1519.47 425.24 1518.5 424.491Z" fill="url(#paint51_linear_1_110)"/>
<path d="M1496.09 431.383C1496.09 430.334 1497.06 429.435 1498.35 429.435C1499.48 429.435 1500.44 430.334 1500.44 431.383C1500.44 432.582 1499.48 433.481 1498.35 433.481C1497.06 433.481 1496.09 432.582 1496.09 431.383Z" fill="url(#paint52_linear_1_110)"/>
<path d="M1474.97 421.644C1475.93 420.895 1477.22 420.895 1478.03 421.644C1479 422.393 1479 423.742 1478.03 424.491C1477.22 425.24 1475.93 425.24 1474.97 424.491C1474.16 423.742 1474.16 422.393 1474.97 421.644Z" fill="url(#paint53_linear_1_110)"/>
<path d="M1467.55 400.818C1468.68 400.818 1469.65 401.717 1469.65 402.915C1469.65 403.964 1468.68 404.863 1467.55 404.863C1466.42 404.863 1465.45 403.964 1465.45 402.915C1465.45 401.717 1466.42 400.818 1467.55 400.818Z" fill="url(#paint54_linear_1_110)"/>
<path d="M1478.03 381.19C1479 382.089 1479 383.287 1478.03 384.036C1477.22 384.785 1475.93 384.785 1474.97 384.036C1474.16 383.287 1474.16 382.089 1474.97 381.19C1475.93 380.44 1477.22 380.44 1478.03 381.19Z" fill="url(#paint55_linear_1_110)"/>
<path d="M1500.44 374.297C1500.44 375.346 1499.48 376.245 1498.35 376.245C1497.06 376.245 1496.09 375.346 1496.09 374.297C1496.09 373.099 1497.06 372.2 1498.35 372.2C1499.48 372.2 1500.44 373.099 1500.44 374.297Z" fill="url(#paint56_linear_1_110)"/>
<defs>
<radialGradient id="paint0_radial_1_110" cx="0" cy="0" r="1" gradientUnits="userSpaceOnUse" gradientTransform="translate(1320.49 577.018) scale(276.05 256.51)">
<stop stop-color="#FEFEFE"/>
<stop offset="0.9" stop-color="#FEFFFF" stop-opacity="0"/>
</radialGradient>
<linearGradient id="paint1_linear_1_110" x1="667.134" y1="211.731" x2="789.216" y2="80.3489" gradientUnits="userSpaceOnUse">
<stop stop-color="#B7E4F8"/>
<stop offset="1" stop-color="#FEFEFE"/>
</linearGradient>
<linearGradient id="paint2_linear_1_110" x1="2923.91" y1="-83.4354" x2="1846.23" y2="1076.33" gradientUnits="userSpaceOnUse">
<stop stop-color="#FEFEFE"/>
<stop offset="1" stop-color="white" stop-opacity="0.11"/>
</linearGradient>
<linearGradient id="paint3_linear_1_110" x1="2074.14" y1="644.049" x2="1935.74" y2="792.986" gradientUnits="userSpaceOnUse">
<stop stop-color="#FEFEFE"/>
<stop offset="1" stop-color="white" stop-opacity="0"/>
</linearGradient>
<linearGradient id="paint4_linear_1_110" x1="2106.4" y1="360.213" x2="1939.04" y2="540.321" gradientUnits="userSpaceOnUse">
<stop stop-color="#FEFEFE"/>
<stop offset="1" stop-color="white" stop-opacity="0"/>
</linearGradient>
<linearGradient id="paint5_linear_1_110" x1="1681.32" y1="401.035" x2="1486.49" y2="610.705" gradientUnits="userSpaceOnUse">
<stop stop-color="#FEFEFE"/>
<stop offset="1" stop-color="white" stop-opacity="0"/>
</linearGradient>
<linearGradient id="paint6_linear_1_110" x1="1358.71" y1="460.15" x2="1431.03" y2="537.983" gradientUnits="userSpaceOnUse">
<stop stop-color="#2D486D"/>
<stop offset="1" stop-color="#5E7692"/>
</linearGradient>
<linearGradient id="paint7_linear_1_110" x1="1328.23" y1="484.573" x2="1357.97" y2="452.572" gradientUnits="userSpaceOnUse">
<stop stop-color="#FEFEFE"/>
<stop offset="1" stop-color="#0A0B0B"/>
</linearGradient>
<linearGradient id="paint8_linear_1_110" x1="1358.23" y1="480.977" x2="1410.07" y2="536.927" gradientUnits="userSpaceOnUse">
<stop stop-color="#3B3C3C"/>
<stop offset="0.3" stop-color="#A3A4A3"/>
<stop offset="0.5" stop-color="#0A0B0B"/>
<stop offset="0.8" stop-color="#484949"/>
<stop offset="1" stop-color="#989998"/>
</linearGradient>
<linearGradient id="paint9_linear_1_110" x1="1326.14" y1="504.95" x2="1363.21" y2="465.218" gradientUnits="userSpaceOnUse">
<stop stop-color="#FEFEFE"/>
<stop offset="1" stop-color="#0A0B0B"/>
</linearGradient>
<linearGradient id="paint10_linear_1_110" x1="1338.23" y1="491.016" x2="1356.46" y2="471.397" gradientUnits="userSpaceOnUse">
<stop stop-color="#FEFEFE"/>
<stop offset="0.7" stop-color="#0A0B0B"/>
</linearGradient>
<linearGradient id="paint11_linear_1_110" x1="1182.31" y1="718.758" x2="1351.31" y2="536.882" gradientUnits="userSpaceOnUse">
<stop stop-color="#FBD92A"/>
<stop offset="1" stop-color="#F16625"/>
</linearGradient>
<radialGradient id="paint12_radial_1_110" cx="0" cy="0" r="1" gradientUnits="userSpaceOnUse" gradientTransform="translate(1325.49 660.924) scale(126.738 117.767)">
<stop stop-color="#F16521"/>
<stop offset="1" stop-color="#F16521" stop-opacity="0"/>
</radialGradient>
<linearGradient id="paint13_linear_1_110" x1="1217.3" y1="700.779" x2="1362.53" y2="544.322" gradientUnits="userSpaceOnUse">
<stop stop-color="#F16521"/>
<stop offset="1" stop-color="#DC4D26"/>
</linearGradient>
<linearGradient id="paint14_linear_1_110" x1="1225.52" y1="711.117" x2="1384.23" y2="540.485" gradientUnits="userSpaceOnUse">
<stop stop-color="#F16521"/>
<stop offset="1" stop-color="#FEFEFE"/>
</linearGradient>
<linearGradient id="paint15_linear_1_110" x1="1077.18" y1="620.919" x2="1246.18" y2="439.042" gradientUnits="userSpaceOnUse">
<stop stop-color="#FBD92A"/>
<stop offset="1" stop-color="#F16625"/>
</linearGradient>
<radialGradient id="paint16_radial_1_110" cx="0" cy="0" r="1" gradientUnits="userSpaceOnUse" gradientTransform="translate(1220.36 563.084) scale(126.738 117.767)">
<stop stop-color="#F16521"/>
<stop offset="1" stop-color="#F16521" stop-opacity="0"/>
</radialGradient>
<linearGradient id="paint17_linear_1_110" x1="1112.17" y1="602.939" x2="1257.41" y2="446.631" gradientUnits="userSpaceOnUse">
<stop stop-color="#F16521"/>
<stop offset="1" stop-color="#DC4D26"/>
</linearGradient>
<linearGradient id="paint18_linear_1_110" x1="1120.39" y1="613.427" x2="1279.08" y2="442.647" gradientUnits="userSpaceOnUse">
<stop stop-color="#F16521"/>
<stop offset="1" stop-color="#FEFEFE"/>
</linearGradient>
<linearGradient id="paint19_linear_1_110" x1="1332.59" y1="458.952" x2="1585.12" y2="187.182" gradientUnits="userSpaceOnUse">
<stop stop-color="#B7E4F8"/>
<stop offset="1" stop-color="#FEFEFE"/>
</linearGradient>
<linearGradient id="paint20_linear_1_110" x1="1471.26" y1="353.471" x2="1471.26" y2="482.175" gradientUnits="userSpaceOnUse">
<stop stop-color="#7CC2E7"/>
<stop offset="1" stop-color="#F4FAF8"/>
</linearGradient>
<linearGradient id="paint21_linear_1_110" x1="1368.87" y1="492.064" x2="1621.1" y2="220.616" gradientUnits="userSpaceOnUse">
<stop stop-color="#6E9EB8"/>
<stop offset="1" stop-color="#F4FAF8"/>
</linearGradient>
<linearGradient id="paint22_linear_1_110" x1="1562.52" y1="337.289" x2="1562.52" y2="180.267" gradientUnits="userSpaceOnUse">
<stop stop-color="#BA2425"/>
<stop offset="1" stop-color="#F16625"/>
</linearGradient>
<linearGradient id="paint23_linear_1_110" x1="1622.34" y1="337.289" x2="1622.34" y2="178.019" gradientUnits="userSpaceOnUse">
<stop stop-color="#BA2425"/>
<stop offset="1" stop-color="#F16625"/>
</linearGradient>
<linearGradient id="paint24_linear_1_110" x1="1590.9" y1="470.639" x2="1455.82" y2="616.012" gradientUnits="userSpaceOnUse">
<stop stop-color="#FEFEFE"/>
<stop offset="1" stop-color="#B7E4F8"/>
</linearGradient>
<linearGradient id="paint25_linear_1_110" x1="1477.22" y1="514.689" x2="1477.22" y2="442.92" gradientUnits="userSpaceOnUse">
<stop stop-color="#BA2425"/>
<stop offset="1" stop-color="#F16625"/>
</linearGradient>
<linearGradient id="paint26_linear_1_110" x1="1295.66" y1="585.109" x2="1295.66" y2="502.253" gradientUnits="userSpaceOnUse">
<stop stop-color="#F16625"/>
<stop offset="1" stop-color="#982F1F"/>
</linearGradient>
<linearGradient id="paint27_linear_1_110" x1="1401.92" y1="557.391" x2="1435.1" y2="593.09" gradientUnits="userSpaceOnUse">
<stop stop-color="#2D486D"/>
<stop offset="1" stop-color="#5E7692"/>
</linearGradient>
<linearGradient id="paint28_linear_1_110" x1="1485.77" y1="372.949" x2="1350.68" y2="518.173" gradientUnits="userSpaceOnUse">
<stop stop-color="#FEFEFE"/>
<stop offset="1" stop-color="#B7E4F8"/>
</linearGradient>
<linearGradient id="paint29_linear_1_110" x1="1372.09" y1="416.849" x2="1372.09" y2="345.081" gradientUnits="userSpaceOnUse">
<stop stop-color="#BA2425"/>
<stop offset="1" stop-color="#F16625"/>
</linearGradient>
<linearGradient id="paint30_linear_1_110" x1="1297.6" y1="460.45" x2="1328.98" y2="494.221" gradientUnits="userSpaceOnUse">
<stop stop-color="#2D486D"/>
<stop offset="1" stop-color="#5E7692"/>
</linearGradient>
<linearGradient id="paint31_linear_1_110" x1="1514.96" y1="331.896" x2="1554.84" y2="288.81" gradientUnits="userSpaceOnUse">
<stop stop-color="#F4FAF8"/>
<stop offset="1" stop-color="#7CC2E7"/>
</linearGradient>
<linearGradient id="paint32_linear_1_110" x1="1527.05" y1="367.705" x2="1527.05" y2="306.724" gradientUnits="userSpaceOnUse">
<stop stop-color="#A4A4A4"/>
<stop offset="1" stop-color="#576A7B"/>
</linearGradient>
<linearGradient id="paint33_linear_1_110" x1="1528.34" y1="366.656" x2="1528.34" y2="307.773" gradientUnits="userSpaceOnUse">
<stop stop-color="#DCDEDD"/>
<stop offset="1" stop-color="#FEFEFE"/>
</linearGradient>
<linearGradient id="paint34_linear_1_110" x1="1536.08" y1="360.064" x2="1536.08" y2="314.366" gradientUnits="userSpaceOnUse">
<stop stop-color="#A4A4A4"/>
<stop offset="1" stop-color="#576A7B"/>
</linearGradient>
<linearGradient id="paint35_linear_1_110" x1="1593.16" y1="306.724" x2="1593.16" y2="354.97" gradientUnits="userSpaceOnUse">
<stop stop-color="#FEFEFE"/>
<stop offset="1" stop-color="#0A0B0B"/>
</linearGradient>
<linearGradient id="paint36_linear_1_110" x1="1582.68" y1="318.86" x2="1582.68" y2="315.115" gradientUnits="userSpaceOnUse">
<stop stop-color="#A4A4A4"/>
<stop offset="1" stop-color="#576A7B"/>
</linearGradient>
<linearGradient id="paint37_linear_1_110" x1="1591.06" y1="339.237" x2="1591.06" y2="335.192" gradientUnits="userSpaceOnUse">
<stop stop-color="#A4A4A4"/>
<stop offset="1" stop-color="#576A7B"/>
</linearGradient>
<linearGradient id="paint38_linear_1_110" x1="1582.68" y1="359.315" x2="1582.68" y2="355.569" gradientUnits="userSpaceOnUse">
<stop stop-color="#A4A4A4"/>
<stop offset="1" stop-color="#576A7B"/>
</linearGradient>
<linearGradient id="paint39_linear_1_110" x1="1560.43" y1="367.855" x2="1560.43" y2="363.809" gradientUnits="userSpaceOnUse">
<stop stop-color="#A4A4A4"/>
<stop offset="1" stop-color="#576A7B"/>
</linearGradient>
<linearGradient id="paint40_linear_1_110" x1="1539.14" y1="359.315" x2="1539.14" y2="355.569" gradientUnits="userSpaceOnUse">
<stop stop-color="#A4A4A4"/>
<stop offset="1" stop-color="#576A7B"/>
</linearGradient>
<linearGradient id="paint41_linear_1_110" x1="1529.63" y1="339.237" x2="1529.63" y2="335.192" gradientUnits="userSpaceOnUse">
<stop stop-color="#A4A4A4"/>
<stop offset="1" stop-color="#576A7B"/>
</linearGradient>
<linearGradient id="paint42_linear_1_110" x1="1539.14" y1="318.86" x2="1539.14" y2="315.115" gradientUnits="userSpaceOnUse">
<stop stop-color="#A4A4A4"/>
<stop offset="1" stop-color="#576A7B"/>
</linearGradient>
<linearGradient id="paint43_linear_1_110" x1="1560.43" y1="310.62" x2="1560.43" y2="306.574" gradientUnits="userSpaceOnUse">
<stop stop-color="#A4A4A4"/>
<stop offset="1" stop-color="#576A7B"/>
</linearGradient>
<linearGradient id="paint44_linear_1_110" x1="1445.46" y1="395.723" x2="1484.46" y2="353.752" gradientUnits="userSpaceOnUse">
<stop stop-color="#F4FAF8"/>
<stop offset="1" stop-color="#7CC2E7"/>
</linearGradient>
<linearGradient id="paint45_linear_1_110" x1="1456.42" y1="433.331" x2="1456.42" y2="372.35" gradientUnits="userSpaceOnUse">
<stop stop-color="#A4A4A4"/>
<stop offset="1" stop-color="#576A7B"/>
</linearGradient>
<linearGradient id="paint46_linear_1_110" x1="1457.71" y1="432.282" x2="1457.71" y2="373.399" gradientUnits="userSpaceOnUse">
<stop stop-color="#DCDEDD"/>
<stop offset="1" stop-color="#FEFEFE"/>
</linearGradient>
<linearGradient id="paint47_linear_1_110" x1="1465.45" y1="425.689" x2="1465.45" y2="379.991" gradientUnits="userSpaceOnUse">
<stop stop-color="#A4A4A4"/>
<stop offset="1" stop-color="#576A7B"/>
</linearGradient>
<linearGradient id="paint48_linear_1_110" x1="1522.37" y1="374.447" x2="1522.37" y2="415.351" gradientUnits="userSpaceOnUse">
<stop stop-color="#FEFEFE"/>
<stop offset="1" stop-color="#0A0B0B"/>
</linearGradient>
<linearGradient id="paint49_linear_1_110" x1="1512.05" y1="384.486" x2="1512.05" y2="380.89" gradientUnits="userSpaceOnUse">
<stop stop-color="#A4A4A4"/>
<stop offset="1" stop-color="#576A7B"/>
</linearGradient>
<linearGradient id="paint50_linear_1_110" x1="1520.44" y1="404.863" x2="1520.44" y2="400.818" gradientUnits="userSpaceOnUse">
<stop stop-color="#A4A4A4"/>
<stop offset="1" stop-color="#576A7B"/>
</linearGradient>
<linearGradient id="paint51_linear_1_110" x1="1512.05" y1="424.94" x2="1512.05" y2="421.194" gradientUnits="userSpaceOnUse">
<stop stop-color="#A4A4A4"/>
<stop offset="1" stop-color="#576A7B"/>
</linearGradient>
<linearGradient id="paint52_linear_1_110" x1="1489.64" y1="433.481" x2="1489.64" y2="429.435" gradientUnits="userSpaceOnUse">
<stop stop-color="#A4A4A4"/>
<stop offset="1" stop-color="#576A7B"/>
</linearGradient>
<linearGradient id="paint53_linear_1_110" x1="1468.52" y1="424.94" x2="1468.52" y2="421.194" gradientUnits="userSpaceOnUse">
<stop stop-color="#A4A4A4"/>
<stop offset="1" stop-color="#576A7B"/>
</linearGradient>
<linearGradient id="paint54_linear_1_110" x1="1459" y1="404.863" x2="1459" y2="400.818" gradientUnits="userSpaceOnUse">
<stop stop-color="#A4A4A4"/>
<stop offset="1" stop-color="#576A7B"/>
</linearGradient>
<linearGradient id="paint55_linear_1_110" x1="1468.52" y1="384.486" x2="1468.52" y2="380.89" gradientUnits="userSpaceOnUse">
<stop stop-color="#A4A4A4"/>
<stop offset="1" stop-color="#576A7B"/>
</linearGradient>
<linearGradient id="paint56_linear_1_110" x1="1489.64" y1="376.245" x2="1489.64" y2="372.2" gradientUnits="userSpaceOnUse">
<stop stop-color="#A4A4A4"/>
<stop offset="1" stop-color="#576A7B"/>
</linearGradient>
</defs>
</svg>
